<?xml version="1.0" encoding="UTF-8"?>
<svg id="Layer_1" xmlns="http://www.w3.org/2000/svg" version="1.1" viewBox="0 0 1228.79 900">
  <!-- Generator: Adobe Illustrator 30.3.0, SVG Export Plug-In . SVG Version: 2.1.3 Build 182)  -->
  <defs>
    <style>
      .st0 {
        fill: #fd2725;
      }
    </style>
  </defs>
  <path class="st0" d="M11.01,900V105.18h318.3v154.52h-158.22v126.76h149.9v152.67h-149.9v360.86H11.01Z"/>
  <path class="st0" d="M341.05,900V105.18h153.6v794.82h-153.6Z"/>
  <path class="st0" d="M506.39,105.18h244.28c38.86,0,68.93,8.79,90.22,26.37,21.28,17.58,35.62,42.26,43.03,74.02,7.4,31.78,11.1,72.33,11.1,121.68,0,45.04-5.87,80.2-17.58,105.48-11.72,25.3-32.08,42.88-61.07,52.74,24.06,4.94,41.48,16.97,52.28,36.09,10.79,19.13,16.19,45.04,16.19,77.72l-1.85,300.72h-155.45v-310.9c0-22.21-4.32-36.39-12.95-42.56-8.65-6.16-24.38-9.25-47.19-9.25v362.71h-161V105.18ZM706.25,399.42c22.21,0,33.31-24.06,33.31-72.17,0-20.96-.93-36.69-2.78-47.19-1.85-10.48-5.25-17.73-10.18-21.74-4.94-4.01-12.03-6.01-21.28-6.01h-37.01v147.12h37.94Z"/>
  <path class="st0" d="M900.31,900V105.18h318.3v153.6h-156.37v154.52h149.9v149.9h-149.9v182.28h166.55v154.52h-328.48Z"/>
  <g>
    <path class="st0" d="M11.07,94.1V18.78H0V.87h40.81v17.91h-11.07v75.33H11.07Z"/>
    <path class="st0" d="M48.41,88.08c-3.91-4.59-5.86-11.05-5.86-19.37V24.31c0-8.03,1.95-14.09,5.86-18.18,3.91-4.09,9.62-6.13,17.15-6.13s13.24,2.05,17.15,6.13c3.91,4.09,5.86,10.15,5.86,18.18v44.39c0,8.4-1.95,14.87-5.86,19.43-3.91,4.56-9.62,6.84-17.15,6.84s-13.24-2.3-17.15-6.89ZM68.92,75.65c.58-1.45.87-3.47.87-6.08V23.99c0-2.02-.27-3.67-.81-4.94-.54-1.27-1.65-1.9-3.31-1.9-3.11,0-4.67,2.35-4.67,7.06v45.48c0,2.68.33,4.7.98,6.08.65,1.38,1.84,2.06,3.58,2.06s2.79-.72,3.36-2.17Z"/>
    <path class="st0" d="M93.34.87h28.65c4.56,0,8.09,1.03,10.58,3.09,2.5,2.06,4.18,4.96,5.05,8.68.87,3.73,1.3,8.48,1.3,14.27,0,5.28-.69,9.41-2.06,12.37-1.38,2.97-3.76,5.03-7.16,6.19,2.82.58,4.87,1.99,6.13,4.23,1.27,2.24,1.9,5.28,1.9,9.12l-.22,35.28h-18.23v-36.47c0-2.61-.51-4.27-1.52-4.99-1.01-.72-2.86-1.09-5.54-1.09v42.55h-18.89V.87ZM116.79,35.38c2.61,0,3.91-2.82,3.91-8.47,0-2.46-.11-4.3-.33-5.54-.22-1.23-.62-2.08-1.19-2.55-.58-.47-1.41-.71-2.5-.71h-4.34v17.26h4.45Z"/>
    <path class="st0" d="M147.5,88.08c-3.91-4.59-5.86-11.05-5.86-19.37V24.31c0-8.03,1.95-14.09,5.86-18.18,3.91-4.09,9.62-6.13,17.15-6.13s13.24,2.05,17.15,6.13c3.91,4.09,5.86,10.15,5.86,18.18v44.39c0,8.4-1.95,14.87-5.86,19.43-3.91,4.56-9.62,6.84-17.15,6.84s-13.24-2.3-17.15-6.89ZM168.02,75.65c.58-1.45.87-3.47.87-6.08V23.99c0-2.02-.27-3.67-.81-4.94-.54-1.27-1.65-1.9-3.31-1.9-3.11,0-4.67,2.35-4.67,7.06v45.48c0,2.68.33,4.7.98,6.08.65,1.38,1.84,2.06,3.58,2.06s2.79-.72,3.36-2.17Z"/>
    <path class="st0" d="M192.44,94.1V.87h19.21l8.57,44.61V.87h18.02v93.24h-18.23l-9.33-46.67v46.67h-18.23Z"/>
    <path class="st0" d="M251.81,94.1V18.78h-11.07V.87h40.81v17.91h-11.07v75.33h-18.67Z"/>
    <path class="st0" d="M289.15,88.08c-3.91-4.59-5.86-11.05-5.86-19.37V24.31c0-8.03,1.95-14.09,5.86-18.18,3.91-4.09,9.62-6.13,17.15-6.13s13.24,2.05,17.15,6.13c3.91,4.09,5.86,10.15,5.86,18.18v44.39c0,8.4-1.95,14.87-5.86,19.43-3.91,4.56-9.62,6.84-17.15,6.84s-13.24-2.3-17.15-6.89ZM309.66,75.65c.58-1.45.87-3.47.87-6.08V23.99c0-2.02-.27-3.67-.81-4.94-.54-1.27-1.65-1.9-3.31-1.9-3.11,0-4.67,2.35-4.67,7.06v45.48c0,2.68.33,4.7.98,6.08.65,1.38,1.84,2.06,3.58,2.06s2.79-.72,3.36-2.17Z"/>
  </g>
</svg>